<!DOCTYPE svg PUBLIC "-//W3C//DTD SVG 1.1//EN" "http://www.w3.org/Graphics/SVG/1.1/DTD/svg11.dtd">

<!-- Uploaded to: SVG Repo, www.svgrepo.com, Transformed by: SVG Repo Mixer Tools -->
<svg width="85px" height="85px" viewBox="-4.8 -4.8 57.60 57.60" fill="none" xmlns="http://www.w3.org/2000/svg" transform="rotate(0)">

<g id="SVGRepo_bgCarrier" stroke-width="0" transform="translate(0,0), scale(1)">

<path transform="translate(-4.8, -4.8), scale(1.7999999999999998)" d="M16,29.410746364129913C18.006357662974082,29.18795194025396,19.029060132661993,26.85432617296455,20.643638257731226,25.642614200120775C21.95614591035995,24.65760070808482,23.440450298547578,24.00301395858861,24.66352198698697,22.90892823861972C26.041108262504537,21.676623144556068,27.38669285930792,20.418402277798734,28.287800682993925,18.804610320500192C29.344388039136554,16.912370421226534,30.807244920357334,14.843164285038467,30.350205753925444,12.724659180510537C29.894111593750612,10.610534445820534,27.32238493726791,9.736959471055052,25.967835015548985,8.050916830329463C24.61869681219502,6.371610292701008,24.4900010804315,3.1331571693676574,22.364298530743273,2.7843979267377144C19.923491162006762,2.3839401442267136,18.224967448010897,5.335041215752859,16,6.415516528818342C14.729108303001633,7.032679312666813,13.358466433586669,7.265548759170109,12.048214409106617,7.794032665843632C10.661244441958878,8.353460388894058,9.220603503776559,8.745320475100584,8.018375377238364,9.634866763299037C6.625481907814706,10.665489145383454,5.5198365388048405,11.972402374024284,4.5039947768597735,13.376111826263163C3.1098623279562805,15.302550538973415,0.363185965282807,17.130062699718255,0.921408808460896,19.44159004246559C1.4831515568325142,21.76769284947089,4.964208041758056,21.845538849643063,6.891769231023858,23.263571658058385C8.319085045808919,24.31359313836542,9.36291839935535,25.740922811842694,10.831655376104457,26.732178196378694C12.460447516389328,27.831455333746696,14.046966430600145,29.627619455570567,16,29.410746364129913" fill="#7ed0ec" strokewidth="0"/>

</g>

<g id="SVGRepo_tracerCarrier" stroke-linecap="round" stroke-linejoin="round" stroke="#CCCCCC" stroke-width="0.096"/>

<g id="SVGRepo_iconCarrier"> <rect width="48" height="48" fill="white" fill-opacity="0.01"/> <path d="M41 38.0001H19V44.0001H41V38.0001Z" fill="#2F88FF" stroke="#000000" stroke-width="2.352" stroke-linejoin="round"/> <path fill-rule="evenodd" clip-rule="evenodd" d="M19.0001 38.0001C12.4812 30.8772 8.74054 26.7493 7.77829 25.6164C6.33491 23.9169 6.941 21.9962 10.5532 21.9962C14.1653 21.9962 16.2485 27.2816 19.0001 27.2816C19.0165 27.285 19.0176 20.5258 19.0034 7.00418C19.0017 5.34683 20.3438 4.00188 22.0012 4.00014L22.0043 4.00014C23.6635 4.00014 25.0085 5.34515 25.0085 7.0043V15.0137C32.9813 16.2226 37.3158 16.8895 38.0122 17.0145C39.0567 17.2021 41.0001 18.1991 41.0001 21.0682C41.0001 22.9809 41.0001 27.9582 41.0001 38.0001H19.0001Z" stroke="#000000" stroke-width="2.352" stroke-linejoin="round"/> </g>

</svg>